<svg width="375" height="812" viewBox="0 0 375 812" fill="none" xmlns="http://www.w3.org/2000/svg">
  <!-- Background -->
  <rect width="375" height="812" fill="#F8F9FA"/>
  
  <!-- Status Bar -->
  <rect width="375" height="44" fill="#FFFFFF"/>
  <text x="24" y="28" font-family="SF Pro Text" font-size="17" font-weight="600" fill="#000000">9:41</text>
  <rect x="293" y="17" width="24" height="12" rx="2" fill="#34C759"/>
  <rect x="321" y="15" width="15" height="16" rx="2" stroke="#000000" stroke-width="1" fill="none"/>
  <rect x="323" y="17" width="11" height="12" rx="1" fill="#000000"/>
  <rect x="341" y="15" width="22" height="12" rx="3" stroke="#000000" stroke-width="1" fill="none"/>
  <rect x="343" y="17" width="6" height="8" rx="1" fill="#000000"/>
  
  <!-- Header -->
  <rect y="44" width="375" height="64" fill="#FFFFFF"/>
  <text x="24" y="84" font-family="SF Pro Display" font-size="28" font-weight="700" fill="#1D1D1F">日本語 Learning</text>
  <line x1="0" y1="108" x2="375" y2="108" stroke="#E5E5E7" stroke-width="1"/>
  
  <!-- Tab Navigation -->
  <rect y="108" width="375" height="56" fill="#FFFFFF"/>
  
  <!-- Tab 1 - Sentences -->
  <rect x="0" y="108" width="125" height="56" fill="#FFFFFF"/>
  <rect x="16" y="124" width="24" height="24" rx="4" fill="#007AFF"/>
  <rect x="20" y="128" width="16" height="2" rx="1" fill="#FFFFFF"/>
  <rect x="20" y="132" width="12" height="2" rx="1" fill="#FFFFFF"/>
  <rect x="20" y="136" width="8" height="2" rx="1" fill="#FFFFFF"/>
  <rect x="20" y="140" width="14" height="2" rx="1" fill="#FFFFFF"/>
  <text x="48" y="142" font-family="SF Pro Text" font-size="13" font-weight="600" fill="#007AFF">Sentences</text>
  
  <!-- Tab 2 - Practice -->
  <rect x="125" y="108" width="125" height="56" fill="#FFFFFF"/>
  <rect x="141" y="124" width="24" height="24" rx="12" stroke="#8E8E93" stroke-width="2" fill="none"/>
  <circle cx="153" cy="136" r="6" fill="#8E8E93"/>
  <text x="173" y="142" font-family="SF Pro Text" font-size="13" font-weight="500" fill="#8E8E93">Practice</text>
  
  <!-- Tab 3 - Compare -->
  <rect x="250" y="108" width="125" height="56" fill="#FFFFFF"/>
  <rect x="266" y="124" width="24" height="24" rx="4" stroke="#8E8E93" stroke-width="2" fill="none"/>
  <circle cx="274" cy="132" r="2" fill="#8E8E93"/>
  <circle cx="282" cy="132" r="2" fill="#8E8E93"/>
  <path d="M270 138 L278 144 L286 138" stroke="#8E8E93" stroke-width="2" fill="none"/>
  <text x="298" y="142" font-family="SF Pro Text" font-size="13" font-weight="500" fill="#8E8E93">Compare</text>
  
  <line x1="0" y1="164" x2="375" y2="164" stroke="#E5E5E7" stroke-width="1"/>
  
  <!-- Section 1: Sentences Pool -->
  <rect y="164" width="375" height="648" fill="#F8F9FA"/>
  
  <!-- Add Button -->
  <rect x="24" y="184" width="327" height="52" rx="12" fill="#007AFF"/>
  <circle cx="50" cy="210" r="12" fill="#FFFFFF"/>
  <line x1="44" y1="210" x2="56" y2="210" stroke="#007AFF" stroke-width="2"/>
  <line x1="50" y1="204" x2="50" y2="216" stroke="#007AFF" stroke-width="2"/>
  <text x="70" y="216" font-family="SF Pro Text" font-size="17" font-weight="600" fill="#FFFFFF">Add New Sentence</text>
  
  <!-- Sentence Cards -->
  <rect x="24" y="252" width="327" height="120" rx="16" fill="#FFFFFF"/>
  <rect x="40" y="268" width="295" height="88" fill="#FFFFFF"/>
  
  <!-- Japanese Text -->
  <text x="40" y="288" font-family="Hiragino Sans" font-size="18" font-weight="600" fill="#1D1D1F">こんにちは、元気ですか？</text>
  
  <!-- Romaji -->
  <text x="40" y="308" font-family="SF Pro Text" font-size="14" font-weight="400" fill="#8E8E93">Konnichiwa, genki desu ka?</text>
  
  <!-- English Translation -->
  <text x="40" y="328" font-family="SF Pro Text" font-size="16" font-weight="500" fill="#3A3A3C">Hello, how are you?</text>
  
  <!-- Audio Button -->
  <circle cx="305" cy="280" r="16" fill="#34C759"/>
  <path d="M299 276 L305 280 L299 284 Z" fill="#FFFFFF"/>
  
  <!-- Edit Button -->
  <rect x="275" y="332" width="60" height="24" rx="12" fill="#F2F2F7"/>
  <text x="292" y="347" font-family="SF Pro Text" font-size="13" font-weight="500" fill="#007AFF">Edit</text>
  
  <!-- Second Sentence Card -->
  <rect x="24" y="388" width="327" height="120" rx="16" fill="#FFFFFF"/>
  <rect x="40" y="404" width="295" height="88" fill="#FFFFFF"/>
  
  <text x="40" y="424" font-family="Hiragino Sans" font-size="18" font-weight="600" fill="#1D1D1F">ありがとうございます</text>
  <text x="40" y="444" font-family="SF Pro Text" font-size="14" font-weight="400" fill="#8E8E93">Arigatou gozaimasu</text>
  <text x="40" y="464" font-family="SF Pro Text" font-size="16" font-weight="500" fill="#3A3A3C">Thank you very much</text>
  
  <circle cx="305" cy="416" r="16" fill="#34C759"/>
  <path d="M299 412 L305 416 L299 420 Z" fill="#FFFFFF"/>
  
  <rect x="275" y="468" width="60" height="24" rx="12" fill="#F2F2F7"/>
  <text x="292" y="483" font-family="SF Pro Text" font-size="13" font-weight="500" fill="#007AFF">Edit</text>
  
  <!-- Third Sentence Card -->
  <rect x="24" y="524" width="327" height="120" rx="16" fill="#FFFFFF"/>
  <rect x="40" y="540" width="295" height="88" fill="#FFFFFF"/>
  
  <text x="40" y="560" font-family="Hiragino Sans" font-size="18" font-weight="600" fill="#1D1D1F">今日は良い天気ですね</text>
  <text x="40" y="580" font-family="SF Pro Text" font-size="14" font-weight="400" fill="#8E8E93">Kyou wa ii tenki desu ne</text>
  <text x="40" y="600" font-family="SF Pro Text" font-size="16" font-weight="500" fill="#3A3A3C">It's nice weather today</text>
  
  <circle cx="305" cy="552" r="16" fill="#34C759"/>
  <path d="M299 548 L305 552 L299 556 Z" fill="#FFFFFF"/>
  
  <rect x="275" y="604" width="60" height="24" rx="12" fill="#F2F2F7"/>
  <text x="292" y="619" font-family="SF Pro Text" font-size="13" font-weight="500" fill="#007AFF">Edit</text>
  

</svg>